<svg width="32" height="33" viewBox="0 0 32 33" fill="none" xmlns="http://www.w3.org/2000/svg">
<g clip-path="url(#clip0_9406_440)">
<path d="M16 3.08252C19.6226 3.08252 20.0746 3.09585 21.496 3.16252C22.916 3.22919 23.8826 3.45185 24.7333 3.78252C25.6133 4.12119 26.3546 4.57985 27.096 5.31985C27.774 5.98638 28.2986 6.79264 28.6333 7.68252C28.9626 8.53185 29.1866 9.49985 29.2533 10.9199C29.316 12.3412 29.3333 12.7932 29.3333 16.4159C29.3333 20.0385 29.32 20.4905 29.2533 21.9119C29.1866 23.3319 28.9626 24.2985 28.6333 25.1492C28.2995 26.0396 27.7748 26.846 27.096 27.5119C26.4292 28.1896 25.623 28.7142 24.7333 29.0492C23.884 29.3785 22.916 29.6025 21.496 29.6692C20.0746 29.7319 19.6226 29.7492 16 29.7492C12.3773 29.7492 11.9253 29.7359 10.504 29.6692C9.08396 29.6025 8.11729 29.3785 7.26663 29.0492C6.37639 28.7152 5.57 28.1904 4.90396 27.5119C4.22583 26.8454 3.7012 26.0391 3.36663 25.1492C3.03596 24.2999 2.81329 23.3319 2.74663 21.9119C2.68396 20.4905 2.66663 20.0385 2.66663 16.4159C2.66663 12.7932 2.67996 12.3412 2.74663 10.9199C2.81329 9.49852 3.03596 8.53319 3.36663 7.68252C3.70027 6.79209 4.22503 5.98561 4.90396 5.31985C5.57019 4.64149 6.37653 4.11683 7.26663 3.78252C8.11729 3.45185 9.08263 3.22919 10.504 3.16252C11.9253 3.09985 12.3773 3.08252 16 3.08252ZM16 9.74919C14.2318 9.74919 12.5362 10.4516 11.2859 11.7018C10.0357 12.9521 9.33329 14.6477 9.33329 16.4159C9.33329 18.184 10.0357 19.8797 11.2859 21.1299C12.5362 22.3801 14.2318 23.0825 16 23.0825C17.7681 23.0825 19.4638 22.3801 20.714 21.1299C21.9642 19.8797 22.6666 18.184 22.6666 16.4159C22.6666 14.6477 21.9642 12.9521 20.714 11.7018C19.4638 10.4516 17.7681 9.74919 16 9.74919ZM24.6666 9.41585C24.6666 8.97383 24.491 8.5499 24.1785 8.23734C23.8659 7.92478 23.442 7.74919 23 7.74919C22.5579 7.74919 22.134 7.92478 21.8214 8.23734C21.5089 8.5499 21.3333 8.97383 21.3333 9.41585C21.3333 9.85788 21.5089 10.2818 21.8214 10.5944C22.134 10.9069 22.5579 11.0825 23 11.0825C23.442 11.0825 23.8659 10.9069 24.1785 10.5944C24.491 10.2818 24.6666 9.85788 24.6666 9.41585ZM16 12.4159C17.0608 12.4159 18.0782 12.8373 18.8284 13.5874C19.5785 14.3376 20 15.355 20 16.4159C20 17.4767 19.5785 18.4941 18.8284 19.2443C18.0782 19.9944 17.0608 20.4159 16 20.4159C14.9391 20.4159 13.9217 19.9944 13.1715 19.2443C12.4214 18.4941 12 17.4767 12 16.4159C12 15.355 12.4214 14.3376 13.1715 13.5874C13.9217 12.8373 14.9391 12.4159 16 12.4159Z" fill="#5243C2"/>
</g>
<defs>
<clipPath id="clip0_9406_440">
<rect width="32" height="32" fill="white" transform="translate(0 0.416016)"/>
</clipPath>
</defs>
</svg>
