<svg width="32" height="33" viewBox="0 0 32 33" fill="none" xmlns="http://www.w3.org/2000/svg">
<g clip-path="url(#clip0_9406_436)">
<path d="M29.5493 7.95725C28.5314 8.40751 27.4519 8.70322 26.3466 8.83458C27.5116 8.13783 28.3836 7.04127 28.7999 5.74925C27.7066 6.39992 26.5079 6.85592 25.2586 7.10258C24.4194 6.20469 23.3071 5.6092 22.0946 5.4087C20.882 5.20819 19.6372 5.41391 18.5536 5.99386C17.4701 6.5738 16.6085 7.4955 16.1028 8.61564C15.5971 9.73579 15.4756 10.9916 15.7573 12.1879C13.5401 12.0768 11.3711 11.5006 9.391 10.4968C7.41094 9.49299 5.66412 8.08398 4.26395 6.36125C3.76833 7.21252 3.50789 8.18022 3.50928 9.16525C3.50928 11.0986 4.49328 12.8066 5.98928 13.8066C5.10396 13.7787 4.23812 13.5396 3.46395 13.1093V13.1786C3.46422 14.4662 3.90977 15.7141 4.72508 16.7107C5.54038 17.7073 6.67526 18.3912 7.93728 18.6466C7.11543 18.8693 6.25369 18.9021 5.41728 18.7426C5.7731 19.8509 6.46662 20.8202 7.40074 21.5147C8.33485 22.2093 9.46279 22.5943 10.6266 22.6159C9.46992 23.5244 8.14552 24.1959 6.72912 24.5921C5.31273 24.9884 3.83212 25.1016 2.37195 24.9253C4.92088 26.5645 7.88808 27.4347 10.9186 27.4319C21.1759 27.4319 26.7853 18.9346 26.7853 11.5653C26.7853 11.3253 26.7786 11.0826 26.7679 10.8453C27.8598 10.0561 28.8021 9.07861 29.5506 7.95858L29.5493 7.95725Z" fill="#5243C2"/>
</g>
<defs>
<clipPath id="clip0_9406_436">
<rect width="32" height="32" fill="white" transform="translate(0 0.416016)"/>
</clipPath>
</defs>
</svg>
